<svg xmlns="http://www.w3.org/2000/svg" viewBox="0 0 64 64" fill="none">
  <defs>
    <linearGradient id="p0020-bg" x1="0" y1="0" x2="64" y2="64" gradientUnits="userSpaceOnUse">
      <stop offset="0" stop-color="#0F172A"/>
      <stop offset="1" stop-color="#020617"/>
    </linearGradient>
    <linearGradient id="p0020-fg" x1="12" y1="14" x2="52" y2="50" gradientUnits="userSpaceOnUse">
      <stop offset="0" stop-color="#FDE68A"/>
      <stop offset="1" stop-color="#F59E0B"/>
    </linearGradient>
  </defs>
  <rect width="64" height="64" rx="14" fill="url(#p0020-bg)"/>
  <rect x="0.5" y="0.5" width="63" height="63" rx="13.5" stroke="white" stroke-opacity="0.06"/>
  <rect x="14" y="18" width="28" height="32" rx="3" fill="#94A3B8" opacity="0.4" transform="rotate(-4 28 34)"/>
  <rect x="16" y="16" width="28" height="32" rx="3" fill="#CBD5E1" opacity="0.55" transform="rotate(-1 30 32)"/>
  <rect x="18" y="14" width="28" height="32" rx="3" fill="url(#p0020-fg)"/>
  <path d="M24 22 H40 M24 28 H38 M24 34 H36" stroke="#78350F" stroke-width="1.8" stroke-linecap="round"/>
  <circle cx="40" cy="42" r="6" fill="#0F172A"/>
  <path d="M37 42 L39.5 44.5 L43.5 40" stroke="#FDE68A" stroke-width="2" stroke-linecap="round" stroke-linejoin="round" fill="none"/>
  <circle cx="48" cy="14" r="3" fill="#F59E0B"/>
  <circle cx="48" cy="14" r="1.2" fill="#FDE68A"/>
</svg>
